<?xml version="1.0" encoding="UTF-8"?>
<svg id="Layer_1" data-name="Layer 1" xmlns="http://www.w3.org/2000/svg" viewBox="0 0 15 15">
  <defs>
    <style>
      .cls-1 {
        fill: #f89623;
      }

      .cls-2 {
        fill: #fbb044;
      }

      .cls-3 {
        fill: #be232f;
      }
    </style>
  </defs>
  <path class="cls-3" d="M3.59,12.65c-.47-.39-1.72-1.23-1.67-2.81.05-1.48,1.47-1.32,1.43-3.22-.02-1-.69-2.79-.44-2.96.34-.22,1.51.5,1.99,1.58.61,1.35-.11,2.69.29,2.87.27.12.85-.33,1.14-.91.6-1.17-.36-2.16-.21-3.48.2-1.75,1.85-3.2,2.43-2.98.3.11.34.72.38,1.32.07,1.15-.28,1.37-.32,2.46-.04.98.21,1.65.62,2.78.27.75.44.94.59.94.29,0,.51-.69.59-.94.28-.87.1-1.31.21-1.85.24-1.18,1.49-2.01,1.76-1.85.17.11-.14.58-.29,1.87-.09.72-.17,1.44.09,2.23.2.62.44.78.64,1.2.59,1.21.09,2.91-.53,3.77-1.59,2.23-6.2,2.09-8.7-.03h0Z"/>
  <path class="cls-1" d="M4.7,13.05c.4.24,2.69,1.62,5.18.76.46-.16,1.3-.46,1.96-1.29.55-.69,1.13-1.93.73-2.98-.24-.64-.63-.63-.85-1.41-.14-.5-.11-.96-.06-1.67.07-.97.24-1.42.06-1.52-.15-.08-.48.13-.64.38-.19.29-.12.53-.15,1.2-.02.59-.04.89-.17,1.23-.16.39-.56.99-1,.96-.16,0-.37-.1-.76-.73-.39-.63-.87-1.41-.91-2.58-.03-.8.18-.85.23-2.23.03-.87.05-1.45-.21-1.55-.3-.12-.88.47-1.17,1.02-.38.73-.31,1.49-.26,1.93.11,1.02.45,1.09.41,1.81-.06,1.08-.86,1.76-.94,1.81-.58.47-1.45.71-1.64.47-.09-.12,0-.31.09-.53.46-1.26.07-2.96-.56-3.16-.03,0-.22-.07-.38.03-.6.39.61,2.11-.23,2.88-.2.19-.62.81-.79,1.22-.15.35-.11.88.02,1.76.16,1.04,1.19,1.67,2.02,2.17h0Z"/>
  <path class="cls-2" d="M3.88,5.68c-.08.03.18.58.11,1.35-.07.88-.5,1.17-.73,1.9-.4,1.29.26,2.57.29,2.64,1.01,1.87,3.73,1.9,4.22,1.9.77,0,2.65.02,3.63-1.32.72-.98.6-2.2.53-2.93-.1-.97-.44-1.86-.62-1.85-.11.01-.1.41-.35,1.26-.17.56-.25.84-.44.94-.42.22-1.13-.26-1.52-.67-.4-.43-.55-.89-.79-1.67-.33-1.06-.33-1.63-.47-1.64-.17,0-.45.89-.47,1.81-.02.99.27,1.46-.03,1.76-.2.19-.52.17-1.11.11-.59-.05-.81-.2-1.41-.21-.45,0-.57.15-.67.06-.26-.23.52-1.01.44-2.11-.06-.77-.52-1.38-.62-1.35h0Z"/>
</svg>